<svg width="218" height="91" xmlns="http://www.w3.org/2000/svg">
    <title>
        LOGO
    </title>
    <g fill="none" fill-rule="evenodd">
        <rect fill="#162259" width="218" height="91" rx="10"/>
        <path fill="#FFF" d="M23.425 32.721l3.714-4.509 7.617 13.616h4.379l-9.358-16.793 8.572-10.416h-4.671L23.425 27.487V14.619h-3.844v27.209h3.844z"/>
        <g fill="#FFF">
            <path d="M49.54 21.605c-4.989 0-8.212 4.042-8.212 10.293 0 6.253 3.223 10.294 8.212 10.294 4.99 0 8.214-4.041 8.214-10.294 0-6.251-3.224-10.293-8.214-10.293m0 17.394c-2.917 0-4.66-2.654-4.66-7.101 0-4.446 1.743-7.1 4.66-7.1 2.918 0 4.66 2.654 4.66 7.1 0 4.447-1.742 7.101-4.66 7.101M65.317 27.393c1.253-1.274 3.286-2.596 4.951-2.596 1.84 0 2.623.86 2.623 2.88v14.15h3.554V27.605c0-3.756-2.214-6-5.923-6-1.789 0-3.608.812-5.205 2.305v-1.94h-3.552v19.857h3.552V27.393zM87.942 39c-2.064 0-3.804-.938-5.034-2.71l-.278-.4-2.832 2.139.28.373c1.778 2.373 4.744 3.79 7.937 3.79 3.412 0 7.085-1.878 7.085-6 0-4.352-3.84-5.498-6.924-6.418-2.525-.753-4.058-1.308-4.058-2.642 0-1.483 1.076-2.334 2.95-2.334 1.789 0 3.053.696 4.511 2.483l.308.377 2.488-2.192-.225-.34c-1.342-2.033-4.161-3.48-6.857-3.52h-.11c-3.967 0-6.503 2.125-6.617 5.547-.131 4.143 3.556 5.21 6.518 6.067 2.777.804 4.463 1.415 4.463 3.118 0 1.287-.947 2.662-3.605 2.662M104.778 42.192c1.79 0 3.609-.811 5.205-2.305v1.941h3.554V21.97h-3.554v14.435c-1.252 1.274-3.285 2.594-4.95 2.594-1.84 0-2.623-.86-2.623-2.88V21.97h-3.554v14.223c0 3.756 2.214 5.999 5.922 5.999M138.743 21.605c-2.014 0-4.075.936-5.866 2.65-.939-1.671-2.749-2.65-4.971-2.65-1.771 0-3.653.816-5.169 2.207V21.97h-3.553v19.858h3.553v-14.39c1.344-1.31 2.742-2.64 4.805-2.64 1.645 0 2.478 1.017 2.478 3.025v14.005h3.554v-14.39c1.343-1.311 2.743-2.64 4.805-2.64 1.644 0 2.478 1.017 2.478 3.025v14.005h3.553V27.823c0-5.139-3.083-6.218-5.667-6.218M164.676 37.555l.243-.425-2.874-1.49-.22.398c-1.06 1.91-2.775 2.962-4.827 2.962-2.804 0-4.947-2.6-5.122-6.123h12.281V30.66c0-5.67-2.867-9.054-7.668-9.054-4.967 0-8.176 4.04-8.176 10.292 0 7.598 4.678 10.294 8.685 10.294 4.399 0 6.29-2.228 7.678-4.637zm-12.697-7.87c.223-2.024 1.145-4.887 4.581-4.887 2.374 0 3.892 1.859 4.033 4.886h-8.614zM172.194 27.393c1.251-1.274 3.284-2.596 4.95-2.596 1.838 0 2.622.86 2.622 2.88v14.15h3.555V27.605c0-3.756-2.215-6-5.922-6-1.79 0-3.608.812-5.205 2.305v-1.94h-3.555v19.857h3.555V27.393zM189.731 38.594c0 2.986 1.8 3.598 4.504 3.598 1.364 0 2.557-.117 3.193-.312l.33-.103v-3.04l-.542.086c-.747.12-1.484.176-2.253.176-1.677 0-1.677-.547-1.677-.841V25.16h4.363V21.97h-4.363v-6.222h-3.555v6.222h-3.09v3.191h3.09v13.433z"/>
        </g>
        <path fill="#FFF" d="M27.358 67.801l-4.491-14.639h-3.633L25.34 73.02h4.184l5.954-19.858h-3.629z"/>
        <g fill="#FFF">
            <path d="M50.295 67.23c-1.06 1.91-2.775 2.96-4.827 2.96-2.804 0-4.947-2.599-5.122-6.12h12.28v-2.216c0-5.67-2.867-9.056-7.669-9.056-4.966 0-8.175 4.04-8.175 10.293 0 7.597 4.679 10.293 8.686 10.293 4.399 0 6.289-2.228 7.678-4.637l.243-.425-2.874-1.49-.22.398zm-9.846-6.355c.222-2.022 1.144-4.885 4.581-4.885 2.374 0 3.892 1.858 4.031 4.885H40.45zM59.971 55.864V53.16H56.42v19.86h3.552V62.143c1.283-3.997 2.955-5.655 5.761-5.718l.457-.01V52.87h-.467c-2.827 0-4.457 1.156-5.75 2.994"/>
        </g>
        <path fill="#FFF" d="M84.329 53.162H79.97l-7.017 8.793V45.812h-3.552V73.02h3.552v-5.968l2.925-3.355 4.833 9.323h4.15l-6.51-12.351z"/>
        <g fill="#FFF">
            <path d="M99.86 67.23c-1.06 1.91-2.775 2.96-4.828 2.96-2.803 0-4.947-2.599-5.121-6.12h12.28v-2.216c0-5.67-2.867-9.056-7.668-9.056-4.967 0-8.177 4.04-8.177 10.293 0 7.597 4.68 10.293 8.686 10.293 4.4 0 6.29-2.228 7.678-4.637l.244-.425-2.874-1.49-.22.398zm-9.846-6.355c.222-2.022 1.144-4.885 4.581-4.885 2.373 0 3.89 1.858 4.031 4.885h-8.612zM112.414 70.191c-1.677 0-1.677-.548-1.677-.841V56.353h4.363v-3.19h-4.363V46.94h-3.555v6.222h-3.09v3.191h3.09v13.433c0 2.985 1.802 3.598 4.505 3.598 1.364 0 2.558-.117 3.191-.313l.331-.1v-3.042l-.541.087c-.748.118-1.486.175-2.254.175"/>
        </g>
        <path fill="#FFF" d="M173.291 47.02h-4.694l-10.259 12.284V47.02h-3.845v26h3.845v-8.695l3.714-4.303 7.624 12.998h4.389l-9.369-16.037z"/>
        <g fill="#FFF">
            <path d="M187.47 46.673c-6.814 0-10.722 4.864-10.722 13.347 0 8.482 3.908 13.348 10.723 13.348 6.814 0 10.722-4.866 10.722-13.348 0-8.483-3.908-13.347-10.722-13.347m0 23.397c-5.685 0-6.879-5.466-6.879-10.05 0-4.584 1.194-10.05 6.879-10.05 5.684 0 6.878 5.466 6.878 10.05 0 4.584-1.194 10.05-6.878 10.05M134.38 57.747c-1.9 0-3.418 1.52-3.418 3.422a3.422 3.422 0 003.418 3.439 3.44 3.44 0 003.438-3.439 3.423 3.423 0 00-3.438-3.422"/>
        </g>
    </g>
</svg>
