<svg xmlns="http://www.w3.org/2000/svg" width="300" height="120" viewBox="0 0 142 44">
  <g fill="#39393E" fill-rule="evenodd">
    <path d="M36.8030588 7.84030189C39.3970647 7.84030189 39.9157824 6.42981132 39.9157824 4.90890566 39.9157824 3.38841509 39.3970647 1.97833962 36.8030588 1.97833962 34.1768941 1.97833962 33.6581765 3.38841509 33.6581765 4.90890566 33.6581765 6.42981132 34.1768941 7.84030189 36.8030588 7.84030189M27.9172 7.84030189C30.5095353 7.84030189 31.0282529 6.42981132 31.0282529 4.90890566 31.0282529 3.38841509 30.5095353 1.97833962 27.9172 1.97833962 25.3236118 1.97833962 24.7689765 3.38841509 24.7689765 4.90890566 24.7689765 6.42981132 25.3236118 7.84030189 27.9172 7.84030189M36.6556294 11.7123019C36.2860118 10.3773585 34.8814647 9.82071698 32.6211588 9.82071698 30.0275706 9.82071698 28.3979118 10.2295849 27.9172 11.7504906L20.5457294 34.1161887C19.9902588 35.7118113 21.4340647 36.4901132 23.2867471 36.4901132 24.8784 36.4901132 26.2491176 36.2676226 26.7678353 34.3760377L27.8791941 30.4069057 36.6932176 30.4069057 37.7669882 34.4885283C38.0998529 35.6383396 38.9163529 36.4901132 41.5082706 36.4901132 43.1391824 36.4901132 44.8431824 35.8965283 44.2492882 34.0804906L36.6556294 11.7123019 36.6556294 11.7123019zM29.1388176 25.9189057L32.3622176 14.1244151 35.5100235 25.9189057 29.1388176 25.9189057 29.1388176 25.9189057zM21.3747588 12.157283C21.3747588 10.6363774 20.5590941 9.82113208 19.0772824 9.82113208L2.33464706 9.82113208C.851582353 9.82113208 0 10.6363774 0 12.157283 0 13.6424906.851582353 14.4573208 2.33464706 14.4573208L7.63208235 14.4573208 7.63208235 34.3764528C7.63208235 35.8591698 8.55675294 36.4901132 10.7051294 36.4901132 12.8539235 36.4901132 13.7790118 35.8591698 13.7790118 34.3764528L13.7790118 14.4573208 19.0772824 14.4573208C20.5590941 14.4573208 21.3747588 13.6424906 21.3747588 12.157283M89.2444941 9.82113208C87.2794647 9.82113208 85.9480059 10.4520755 85.3181941 11.9721509L80.9784235 21.9223774 75.9821118 11.9721509C75.3163824 10.674566 74.2793647 9.82113208 71.9455529 9.82113208 70.3902353 9.82113208 68.6490647 10.3769434 69.5382353 11.9721509L77.8352118 27.1446792 77.8352118 34.3768679C77.8352118 35.8595849 78.7607176 36.4896981 80.9095118 36.4896981 83.0203 36.4896981 83.9854824 35.8595849 83.9854824 34.3768679L83.9854824 26.9944151 91.3557 11.9721509C92.1329412 10.2295849 90.5776235 9.82113208 89.2444941 9.82113208M61.5390412 22.3586415L61.5390412 22.2851698C65.3174941 21.5790943 66.7988882 20.0959623 66.7988882 16.7212453 66.7988882 11.1938491 63.3913059 9.82154717 58.0567 9.82154717L51.4265529 9.82154717C48.6111941 9.82154717 47.9446294 11.303434 47.9446294 13.0119623L47.9446294 34.3768679C47.9446294 35.6748679 48.7970471 36.4896981 51.1671941 36.4896981L57.3901353 36.4896981C62.9828471 36.4896981 68.0572588 35.3037736 68.0572588 29.0346038 68.0572588 24.6952075 65.8366294 22.8409811 61.5390412 22.3586415L61.5390412 22.3586415zM53.6868588 14.3842642L57.4636412 14.3842642C60.3917647 14.3842642 61.2061765 15.4240755 61.2061765 17.6477358 61.2061765 20.0598491 59.6880294 21.0610566 56.9470118 21.0610566L53.6868588 21.0610566 53.6868588 14.3842642 53.6868588 14.3842642zM57.1316118 32.1511321L53.6868588 32.1511321 53.6868588 25.2144906 57.2059529 25.2144906C60.3165882 25.2144906 62.1696882 25.4373962 62.1696882 28.5539245 62.1696882 31.3346415 60.3917647 32.1511321 57.1316118 32.1511321L57.1316118 32.1511321zM121.424618 44L121.329812 43.991283C121.127253 43.9717736 101.066829 41.8552075 101.066829 23.9426415L101.066829.284339623 141.777394.284339623 141.777394 23.9426415C141.777394 41.8552075 121.721982 43.9717736 121.519841 43.991283L121.424618 44 121.424618 44zM103.060259 2.26558491L103.060259 23.9426415C103.060259 30.672566 106.124118 35.7491698 112.166635 39.0317358 116.410765 41.3375849 120.732159 41.9261887 121.424618 42.0083774 122.114988 41.9261887 126.435965 41.3384151 130.680094 39.0317358 136.720941 35.7491698 139.783965 30.672566 139.783965 23.9426415L139.783965 2.26558491 103.060259 2.26558491 103.060259 2.26558491z"/>
    <path d="M134.319471,18.9141887 L131.920506,18.9141887 L131.920506,16.4306792 C131.920506,15.07 131.240994,14.5490566 129.961324,14.5490566 C128.722582,14.5490566 128.119082,15.07 128.119082,16.4306792 L128.119082,18.9141887 L123.444359,18.9141887 L123.444359,14.2281887 L125.919753,14.2281887 C127.281282,14.2281887 127.799582,13.5885283 127.799582,12.3461509 C127.799582,11.1041887 127.281282,10.4246792 125.919753,10.4246792 L123.444359,10.4246792 L123.444359,8.02003774 C123.444359,6.89886792 122.762341,6.21645283 121.445082,6.21645283 C120.121559,6.21645283 119.443718,6.89886792 119.443718,8.02003774 L119.443718,10.4246792 L116.925724,10.4246792 C115.604288,10.4246792 115.043806,11.1041887 115.043806,12.3461509 C115.043806,13.5885283 115.604288,14.2281887 116.925724,14.2281887 L119.443718,14.2281887 L119.443718,18.9141887 L114.724724,18.9141887 L114.724724,16.4306792 C114.724724,15.07 114.124565,14.5490566 112.882482,14.5490566 C111.603647,14.5490566 110.922465,15.07 110.922465,16.4306792 L110.922465,18.9141887 L108.523082,18.9141887 C107.403371,18.9141887 106.724276,19.5949434 106.724276,20.9170189 C106.724276,22.2378491 107.403371,22.9186038 108.523082,22.9186038 L110.922465,22.9186038 L110.922465,25.4016981 C110.922465,26.7627925 111.603647,27.3235849 112.882482,27.3235849 C114.124565,27.3235849 114.724724,26.7627925 114.724724,25.4016981 L114.724724,22.9186038 L119.443718,22.9186038 L119.443718,27.6440377 L116.925724,27.6440377 C115.604288,27.6440377 115.043806,28.2438491 115.043806,29.484566 C115.043806,30.7269434 115.604288,31.4076981 116.925724,31.4076981 L119.443718,31.4076981 L119.443718,33.8102642 C119.443718,34.931434 120.121559,35.6109434 121.445082,35.6109434 C122.762341,35.6109434 123.444359,34.931434 123.444359,33.8102642 L123.444359,31.4076981 L125.919753,31.4076981 C127.281282,31.4076981 127.799582,30.7269434 127.799582,29.484566 C127.799582,28.2438491 127.281282,27.6440377 125.919753,27.6440377 L123.444359,27.6440377 L123.444359,22.9186038 L128.119082,22.9186038 L128.119082,25.4016981 C128.119082,26.7627925 128.722582,27.3235849 129.961324,27.3235849 C131.240994,27.3235849 131.920506,26.7627925 131.920506,25.4016981 L131.920506,22.9186038 L134.319471,22.9186038 C135.440018,22.9186038 136.121618,22.2378491 136.121618,20.9170189 C136.121618,19.5949434 135.440018,18.9141887 134.319471,18.9141887"/>
  </g>
</svg>