<svg width="63" height="63" viewBox="0 0 63 63" fill="none" xmlns="http://www.w3.org/2000/svg">
<path d="M32.1191 10L32.9312 12.4224L35.4626 12.4544L33.434 13.9837L34.1865 16.4257L32.1191 14.948L30.0525 16.4257L30.805 13.9837L28.7754 12.4544L31.3069 12.4224L32.1191 10Z" fill="black"/>
<path d="M32.1191 47.5762L32.9312 49.9986L35.4626 50.0305L33.434 51.5579L34.1865 53.9999L32.1191 52.524L30.0525 53.9999L30.805 51.5579L28.7754 50.0305L31.3069 49.9986L32.1191 47.5762Z" fill="black"/>
<path d="M41.5097 12.189L42.322 14.6114L44.8534 14.6435L42.8229 16.1726L43.5754 18.6146L41.5097 17.137L39.4424 18.6146L40.1946 16.1726L38.166 14.6435L40.6975 14.6114L41.5097 12.189Z" fill="black"/>
<path d="M48.1306 19.3633L48.9426 21.7867L51.4724 21.8186L49.4438 23.3477L50.196 25.7897L48.1306 24.3121L46.0632 25.7897L46.8155 23.3477L44.7852 21.8186L47.3183 21.7867L48.1306 19.3633Z" fill="black"/>
<path d="M15.75 19.3633L16.563 21.7867L19.0935 21.8186L17.0648 23.3477L17.8171 25.7897L15.75 24.3121L13.6843 25.7897L14.4358 23.3477L12.4062 21.8186L14.9377 21.7867L15.75 19.3633Z" fill="black"/>
<path d="M13.3437 28.6046L14.1558 31.0271L16.6872 31.0592L14.6577 32.5883L15.4101 35.0303L13.3437 33.5526L11.2764 35.0303L12.0286 32.5883L10 31.0592L12.5315 31.0271L13.3437 28.6046Z" fill="black"/>
<path d="M50.6552 28.6046L51.4692 31.0271L53.9988 31.0592L51.9701 32.5883L52.7226 35.0303L50.6552 33.5526L48.5896 35.0303L49.3418 32.5883L47.3115 31.0592L49.843 31.0271L50.6552 28.6046Z" fill="black"/>
<path d="M15.75 37.9696L16.563 40.3903L19.0935 40.4222L17.0648 41.9516L17.8171 44.3936L15.75 42.9176L13.6843 44.3936L14.4358 41.9516L12.4062 40.4222L14.9377 40.3903L15.75 37.9696Z" fill="black"/>
<path d="M48.1306 37.9696L48.9426 40.3903L51.4724 40.4222L49.4438 41.9516L50.196 44.3936L48.1306 42.9176L46.0632 44.3936L46.8155 41.9516L44.7852 40.4222L47.3183 40.3903L48.1306 37.9696Z" fill="black"/>
<path d="M22.7324 45.1428L23.5446 47.5655L26.0761 47.5974L24.0465 49.1265L24.799 51.5685L22.7324 50.0908L20.666 51.5685L21.4182 49.1265L19.3887 47.5974L21.9203 47.5655L22.7324 45.1428Z" fill="black"/>
<path d="M41.2685 45.1428L42.0806 47.5655L44.612 47.5974L42.5817 49.1265L43.334 51.5685L41.2685 50.0908L39.2012 51.5685L39.9534 49.1265L37.9248 47.5974L40.4563 47.5655L41.2685 45.1428Z" fill="black"/>
<path d="M22.7324 12.189L23.5446 14.6114L26.0761 14.6435L24.0465 16.1726L24.799 18.6146L22.7324 17.137L20.666 18.6146L21.4182 16.1726L19.3887 14.6435L21.9203 14.6114L22.7324 12.189Z" fill="black"/>
<circle cx="32" cy="32" r="10" fill="#00D1FF"/>
<g style="mix-blend-mode:multiply">
<path d="M30.243 36.314L26 32.07L27.414 30.656L30.243 33.484L35.899 27.827L37.314 29.242L30.243 36.314Z" fill="black" stroke="white" stroke-width="0.5"/>
<path fill-rule="evenodd" clip-rule="evenodd" d="M21 32C21 25.925 25.925 21 32 21C38.075 21 43 25.925 43 32C43 38.075 38.075 43 32 43C25.925 43 21 38.075 21 32ZM32 41C30.8181 41 29.6478 40.7672 28.5558 40.3149C27.4639 39.8626 26.4718 39.1997 25.636 38.364C24.8003 37.5282 24.1374 36.5361 23.6851 35.4442C23.2328 34.3522 23 33.1819 23 32C23 30.8181 23.2328 29.6478 23.6851 28.5558C24.1374 27.4639 24.8003 26.4718 25.636 25.636C26.4718 24.8003 27.4639 24.1374 28.5558 23.6851C29.6478 23.2328 30.8181 23 32 23C34.3869 23 36.6761 23.9482 38.364 25.636C40.0518 27.3239 41 29.6131 41 32C41 34.3869 40.0518 36.6761 38.364 38.364C36.6761 40.0518 34.3869 41 32 41Z" fill="black" stroke="white" stroke-width="0.5"/>
</g>
</svg>
