<svg width="63" height="63" viewBox="0 0 63 63" fill="none" xmlns="http://www.w3.org/2000/svg">
<path d="M7.29904 53.25L31.4034 11.5L55.5078 53.25H7.29904Z" stroke="black" stroke-width="1.5"/>
<path d="M29.9277 31.6243L24.4277 21.6243C22.5944 22.1243 18.6277 23.8243 17.4277 26.6243C16.2277 29.4243 12.5944 30.1243 10.9277 30.1243L16.4277 40.1243C18.2611 39.9576 22.2277 38.8243 23.4277 35.6243C24.6277 32.4243 28.2611 31.6243 29.9277 31.6243Z" fill="#F49AC1"/>
<path d="M34.9277 31.6243L40.4277 21.6243C42.2611 22.1243 46.2277 23.8243 47.4277 26.6243C48.6277 29.4243 52.2611 30.1243 53.9277 30.1243L48.4277 40.1243C46.5944 39.9576 42.6277 38.8243 41.4277 35.6243C40.2277 32.4243 36.5944 31.6243 34.9277 31.6243Z" fill="#00D1FF"/>
<path d="M26.9998 45.2491L34.6563 31.9877M34.6563 31.9877C41.9698 30.9563 41.1991 41.0191 48.5127 39.9877L54.1997 30.1375C46.8861 31.1689 47.6568 21.1061 40.3433 22.1375L34.6563 31.9877Z" stroke="black" stroke-width="1.5" stroke-linecap="round" stroke-linejoin="round"/>
<path d="M37.8567 45.2491L30.2002 31.9877M30.2002 31.9877C22.8866 30.9563 23.6573 41.0191 16.3438 39.9877L10.6568 30.1375C17.9703 31.1689 17.1996 21.1061 24.5132 22.1375L30.2002 31.9877Z" stroke="black" stroke-width="1.5" stroke-linecap="round" stroke-linejoin="round"/>
</svg>
